<svg version="1.0" xmlns="http://www.w3.org/2000/svg"  width="300.000000pt" height="270.000000pt" viewBox="0 0 300.000000 270.000000"  preserveAspectRatio="xMidYMid meet">
    <g transform="translate(0.000000,270.000000) scale(0.100000,-0.100000)" fill="#FFFF" stroke="none">
        <path d="M751 2633 c-11 -10 -84 -130 -162 -268 -78 -137 -236 -416 -351 -618 -116 -203 -215 -381 -221 -396 -9 -25 2 -50 140 -292 83 -145 246 -433 363 -639 116 -206 219 -381 228 -387 12 -10 177 -13 747 -13 704 0 732 1 752 19 11 10 82 129 158 262 76 134 235 413 353 619 117 206 216 389 219 405 3 25 -20 73 -133 270 -75 132 -237 418 -361 635 -123 217 -231 401 -240 408 -13 9 -178 12 -744 12 -678 0 -728 -1 -748 -17z m1299 -72 c-8 -5 -247 -84 -530 -176 -362 -118 -518 -165 -529 -158 -14 9 -161 314 -161 334 0 5 247 9 618 9 354 0 611 -4 602 -9z m155 -53 c11 -31 206 -1142 203 -1159 -3 -16 -63 17 -374 208 -203 126 -506 311 -671 413 -166 101 -300 186 -298 188 9 9 1092 360 1113 361 12 1 25 -5 27 -11z m-1359 -163 c53 -116 70 -163 64 -175 -11 -21 -725 -703 -742 -709 -6 -2 3 21 19 50 17 30 132 232 255 449 123 217 244 430 268 473 24 42 48 76 54 74 5 -2 42 -75 82 -162z m1758 -478 c152 -268 276 -489 276 -491 0 -2 -12 -6 -27 -9 -16 -4 -98 -22 -183 -41 -120 -27 -157 -32 -166 -23 -6 7 -16 44 -23 82 -6 39 -47 273 -91 520 -44 248 -80 454 -80 460 0 20 26 -24 294 -498z m-754 -282 c294 -180 537 -330 540 -332 6 -6 74 34 -660 -383 -349 -199 -654 -372 -677 -386 l-43 -25 0 821 0 820 153 -93 c83 -52 393 -241 687 -422z m-920 -300 c0 -485 -4 -785 -9 -785 -6 0 -16 8 -23 19 -11 16 -336 354 -660 687 l-108 110 147 141 c82 78 258 247 393 377 135 129 248 235 253 236 4 0 7 -353 7 -785z m1946 -1 c-11 -30 -579 -1029 -592 -1044 -8 -8 -14 -10 -14 -5 1 30 228 967 237 976 8 8 324 84 367 88 4 1 5 -6 2 -15z m-582 -630 c-64 -274 -118 -502 -121 -506 -2 -5 -10 -8 -16 -8 -21 -1 -1077 264 -1077 270 0 9 1325 759 1328 751 1 -4 -50 -233 -114 -507z m-1823 204 c129 -134 277 -287 329 -341 52 -54 99 -107 104 -117 7 -15 -7 -46 -64 -141 -39 -66 -75 -117 -79 -112 -4 4 -117 201 -251 438 -133 237 -254 449 -267 473 -14 23 -21 42 -16 42 5 0 115 -109 244 -242z m1022 -629 c265 -66 486 -124 492 -130 5 -5 -208 -9 -568 -9 -430 0 -577 3 -577 12 0 14 130 230 144 240 6 4 14 8 19 8 4 0 224 -54 490 -121z"/>
    </g>
</svg>
